<?xml version="1.0" encoding="utf-8"?>
<!-- Generator: Adobe Illustrator 17.1.0, SVG Export Plug-In . SVG Version: 6.00 Build 0)  -->
<!DOCTYPE svg PUBLIC "-//W3C//DTD SVG 1.1//EN" "http://www.w3.org/Graphics/SVG/1.1/DTD/svg11.dtd">
<svg version="1.1" id="Layer_1" xmlns="http://www.w3.org/2000/svg" xmlns:xlink="http://www.w3.org/1999/xlink" x="0px" y="0px"
	 viewBox="0 0 63 42" enable-background="new 0 0 63 42" xml:space="preserve">
<text transform="matrix(1 0 0 1 10.5391 13.332)" fill="#FFFFFF" font-family="'OpenSans-Semibold'" font-size="11.4019">NaviShop</text>
<g>
	<path fill="#FFFFFF" d="M0,5.2c0,0,2.1-0.7,2.6,0.5c0,0,0.3,0.4,0.2,2.4l0,2.7c0,0.3,0,0.7,0.9,0.9c0,0,2.4,0.3,5.3,0
		c0,0-2.3,0.7-6,0.5c0,0-1.5-0.1-1.5-1.6c0,0,0-3-0.1-3.9C1.6,6.7,1.4,5,0,5.2z"/>
	<circle fill="#FFFFFF" cx="3.6" cy="12.8" r="1"/>
	<circle fill="#FFFFFF" cx="7.1" cy="12.8" r="1"/>
	<path fill="#FFFFFF" d="M3,5.5c0.1,0.3,0.1,0.4,0.2,0.8c0,0.4,0.1,0.5,0.1,1.1c0,0-0.1,0.5,0.9,0.5c0,0,1.2-0.2,1.5,0.2
		c0,0,0.4,0.3,0.5,1.4c0,0,0.1,1.3,0.6,1.7c0,0,0.8,0.7,2.2,0.2c0,0-1.2,0.1-1.2-1.2c0,0,0.2-2.8,0.1-3.2c0,0,0-0.8-0.8-1.1
		c0,0-0.8-0.5-2.8-0.2C4.4,5.5,3.6,5.6,3,5.5C3,5.5,3,5.5,3,5.5z"/>
</g>
<text transform="matrix(1 0 0 1 10.5391 34.082)" font-family="'OpenSans-Semibold'" font-size="11.4019">NaviShop</text>
<g>
	<path d="M0,26c0,0,2.1-0.7,2.6,0.5c0,0,0.3,0.4,0.2,2.4l0,2.7c0,0.3,0,0.7,0.9,0.9c0,0,2.4,0.3,5.3,0c0,0-2.3,0.7-6,0.5
		c0,0-1.5-0.1-1.5-1.6c0,0,0-3-0.1-3.9C1.6,27.5,1.4,25.8,0,26z"/>
	<circle cx="3.6" cy="33.6" r="1"/>
	<circle cx="7.1" cy="33.6" r="1"/>
	<path d="M3,26.2c0.1,0.3,0.1,0.4,0.2,0.8c0,0.4,0.1,0.5,0.1,1.1c0,0-0.1,0.5,0.9,0.5c0,0,1.2-0.2,1.5,0.2c0,0,0.4,0.3,0.5,1.4
		c0,0,0.1,1.3,0.6,1.7c0,0,0.8,0.7,2.2,0.2c0,0-1.2,0.1-1.2-1.2c0,0,0.2-2.8,0.1-3.2c0,0,0-0.8-0.8-1.1c0,0-0.8-0.5-2.8-0.2
		C4.4,26.3,3.6,26.4,3,26.2C3,26.2,3,26.2,3,26.2z"/>
</g>
</svg>
